# xmcd
#
# Track frame offsets: 
#        150
#        27127
#        52050
#        66167
#        85690
#        103745
#        120305
#        137015
#        157360
#        168295
#        188592
#
# Disc length: 2770 seconds
#
# Revision: 2
# Processed by: cddbd v1.5.2PL0 Copyright (c) Steve Scherf et al.
# Submitted via: ExactAudioCopy v0.90b4
#
DISCID=8e0ad00b
DTITLE=New York for Lovers - For Lovers
DYEAR=2005
DGENRE=Jazz
TTITLE0=Ella Fitzgerald and Louis Armstrong - Autumn in New York
TTITLE1=Stan Getz - Bronx Blues
TTITLE2=Morgana King - Down in the Depths
TTITLE3=Mark Whitfield - Spring in Manhattan
TTITLE4=Sarah Vaughn - Lullaby of Birdland
TTITLE5=Ben Webster - Chelsea Bridge
TTITLE6=Mel Torme - Lonely Town
TTITLE7=Illinois Jacquet - Harlem Nocturne
TTITLE8=Matt Dennis - Violets for Your Furs
TTITLE9=Sonny Rollins - Manhattan
TTITLE10=Blossom Dearie - I Walk a Little Faster
EXTD=
EXTT0=
EXTT1=
EXTT2=
EXTT3=
EXTT4=
EXTT5=
EXTT6=
EXTT7=
EXTT8=
EXTT9=
EXTT10=
PLAYORDER=
